<svg width="128" height="128" viewBox="0 0 128 128" xmlns="http://www.w3.org/2000/svg">
  <defs>
    <clipPath id="circleView">
      <circle cx="64" cy="64" r="64" />
    </clipPath>
  </defs>
  <g clip-path="url(#circleView)">
    <rect width="128" height="128" fill="#000000" />
    <g transform="translate(13, 13) scale(0.95)">
      <!-- 状 -->
      <g transform="translate(18, 18) scale(0.32)">
        <path d="M33.37,16.5c0.94,0.94,1.46,3,1.46,4.25c0,0.85-0.11,46.62-0.11,67c0,3.92,0.03,6,0.03,7.87" stroke="#FFD700" stroke-width="8" fill="none" stroke-linecap="round" stroke-linejoin="round"/>
        <path d="M14.75,30.5c3.53,1.85,8.12,6.62,10,10.5" stroke="#FFD700" stroke-width="8" fill="none" stroke-linecap="round" stroke-linejoin="round"/>
        <path d="M11.25,73.14c1.5,0.99,3.37,0.36,4.54-0.96C19.21,68.34,21.5,66,26.75,59.5" stroke="#FFD700" stroke-width="8" fill="none" stroke-linecap="round" stroke-linejoin="round"/>
        <path d="M43.88,47.11c2,0.64,4.9,0.47,6.62,0.26c8.75-1.08,24.18-3.39,31.96-4.29c1.79-0.21,4.41-0.21,6.19,0.17" stroke="#FFD700" stroke-width="8" fill="none" stroke-linecap="round" stroke-linejoin="round"/>
        <path d="M63.01,16.5c1,0.99,1.42,2.66,1.49,4.82c1,29.68-2.75,57.56-21.72,72.43" stroke="#FFD700" stroke-width="8" fill="none" stroke-linecap="round" stroke-linejoin="round"/>
        <path d="M64.25,46.25c4.35,11.11,15.58,29.31,22.97,38.03c1.53,1.81,3.66,4.35,6.03,6.1" stroke="#FFD700" stroke-width="8" fill="none" stroke-linecap="round" stroke-linejoin="round"/>
        <path d="M78.31,19.5c4.56,3.52,6.56,6.95,7.98,10.25" stroke="#FFD700" stroke-width="8" fill="none" stroke-linecap="round" stroke-linejoin="round"/>
      </g>
      <!-- 態 -->
      <g transform="translate(55, 18) scale(0.32)">
        <path d="M34.55,10.96c0.33,0.66,0.11,1.73-0.18,2.15C30.62,18.5,27.75,22,22.76,27.33c-1.34,1.43-1.2,2.5,0.93,2.04c5.81-1.24,17.69-3.99,24.01-5.08" stroke="#FFD700" stroke-width="8" fill="none" stroke-linecap="round" stroke-linejoin="round"/>
        <path d="M43.84,17.95c2.97,1.94,7.68,7.97,8.42,10.99" stroke="#FFD700" stroke-width="8" fill="none" stroke-linecap="round" stroke-linejoin="round"/>
        <path d="M24.65,36.48c0.75,0.75,1.08,2.18,1.1,3.16c0.03,1.97-0.19,16.52-0.16,24.86c0.01,3.36,0.03,5.56,0.05,5.21" stroke="#FFD700" stroke-width="8" fill="none" stroke-linecap="round" stroke-linejoin="round"/>
        <path d="M26.35,37.44c1.7-0.12,17.09-2.59,18.35-2.75c1.42-0.19,2.84,1.06,2.84,3c0,2.56,0.07,18.27,0.07,27.86c0,6.16-3.91,1.88-5.33,0.82" stroke="#FFD700" stroke-width="8" fill="none" stroke-linecap="round" stroke-linejoin="round"/>
        <path d="M26.85,46.56c5.82-0.71,14.59-1.53,19.7-1.88" stroke="#FFD700" stroke-width="8" fill="none" stroke-linecap="round" stroke-linejoin="round"/>
        <path d="M26.53,55.92c4.54-0.36,14.73-1.17,19.99-1.41" stroke="#FFD700" stroke-width="8" fill="none" stroke-linecap="round" stroke-linejoin="round"/>
        <path d="M83.05,14.1c-0.09,1.22-0.95,1.84-1.9,2.43c-3.2,1.99-10.75,5.74-16.28,7.44" stroke="#FFD700" stroke-width="8" fill="none" stroke-linecap="round" stroke-linejoin="round"/>
        <path d="M60.66,10.61c0.54,0.35,1.25,1.39,1.25,2.56c0,0.5-0.07,14.03-0.07,15.5c0,4.19,1.31,5.94,13.26,5.94c9.96,0,11.7-1.36,11.7-6.1" stroke="#FFD700" stroke-width="8" fill="none" stroke-linecap="round" stroke-linejoin="round"/>
        <path d="M84.73,44.82c-0.23,0.68-0.6,1.18-1.66,1.72c-2.95,1.52-7.98,3.93-17.02,5.75" stroke="#FFD700" stroke-width="8" fill="none" stroke-linecap="round" stroke-linejoin="round"/>
        <path d="M62.34,39.54c0.62,0.62,1.25,1.71,1.25,2.82c0,2.39-0.07,15.22-0.07,16.71c0,5.12,1.94,6.05,13.26,6.05c10.76,0,12.2-0.37,12.2-6.65" stroke="#FFD700" stroke-width="8" fill="none" stroke-linecap="round" stroke-linejoin="round"/>
        <path d="M21.88,80.75c0.34,2.22-3.4,12-6.12,15.7" stroke="#FFD700" stroke-width="8" fill="none" stroke-linecap="round" stroke-linejoin="round"/>
        <path d="M31.75,77c10.88,14.75,24.38,20.88,47.51,19.54c8.98-0.52,8.24-3.29,2.65-6.82" stroke="#FFD700" stroke-width="8" fill="none" stroke-linecap="round" stroke-linejoin="round"/>
        <path d="M57.02,74.87c2.6,4.38,5.53,6.36,6.66,3.15" stroke="#FFD700" stroke-width="8" fill="none" stroke-linecap="round" stroke-linejoin="round"/>
        <path d="M81.76,74.01c4.38,1.67,8.61,4.49,11.49,8.36" stroke="#FFD700" stroke-width="8" fill="none" stroke-linecap="round" stroke-linejoin="round"/>
      </g>
      <!-- 異 -->
      <g transform="translate(18, 55) scale(0.32)">
        <path d="M27.85,13.89c0.82,0.82,0.95,2.23,1.15,3.24c1.87,9.5,2.71,14.21,3.78,22.85c0.17,1.38,0.32,2.74,0.45,4.03" stroke="#FFD700" stroke-width="8" fill="none" stroke-linecap="round" stroke-linejoin="round"/>
        <path d="M30.08,16.45c17.04-2.2,35.29-3.95,46.87-4.72c2.43-0.16,3.68,1.77,3.17,4.29c-1.03,5.14-2.89,13.7-5.44,21.79c-0.35,1.1-0.71,2.21-1.09,3.3" stroke="#FFD700" stroke-width="8" fill="none" stroke-linecap="round" stroke-linejoin="round"/>
        <path d="M53.18,15.8c0.95,0.95,1.2,2.33,1.2,3.45c0,6.99-0.02,12-0.02,19.76" stroke="#FFD700" stroke-width="8" fill="none" stroke-linecap="round" stroke-linejoin="round"/>
        <path d="M32.39,29.18c8.23-1.06,37.73-3.68,44.31-3.82" stroke="#FFD700" stroke-width="8" fill="none" stroke-linecap="round" stroke-linejoin="round"/>
        <path d="M34.42,41.86C46,40.5,64.25,39.5,73.21,39.02" stroke="#FFD700" stroke-width="8" fill="none" stroke-linecap="round" stroke-linejoin="round"/>
        <path d="M26.35,56.7c2.32,0.64,4.71,0.14,7.04-0.11c9.12-0.96,29.62-3.21,40.24-4.12c2.41-0.21,4.86-0.24,7.25,0.15" stroke="#FFD700" stroke-width="8" fill="none" stroke-linecap="round" stroke-linejoin="round"/>
        <path d="M41.22,49.55c0.8,0.8,1.02,2.23,1.02,2.79c0.01,5.66,0.01,12.16,0,19.21" stroke="#FFD700" stroke-width="8" fill="none" stroke-linecap="round" stroke-linejoin="round"/>
        <path d="M66.24,45.5c0.76,0.76,1.01,1.88,0.94,2.93C66.4,58.71,66,62,65.36,69.74" stroke="#FFD700" stroke-width="8" fill="none" stroke-linecap="round" stroke-linejoin="round"/>
        <path d="M15.73,74.13c3.15,0.85,6.58,0.35,9.78,0.07c13.13-1.14,44.37-4.17,58.36-4.92c3.01-0.16,5.92-0.25,8.9,0.24" stroke="#FFD700" stroke-width="8" fill="none" stroke-linecap="round" stroke-linejoin="round"/>
        <path d="M39.41,81.33c0.09,0.92,0.02,1.92-0.86,3.06c-2.88,3.72-9.9,8.83-17.61,12.96" stroke="#FFD700" stroke-width="8" fill="none" stroke-linecap="round" stroke-linejoin="round"/>
        <path d="M65.84,80.53C72.75,85,79.12,91.75,82.92,98.47" stroke="#FFD700" stroke-width="8" fill="none" stroke-linecap="round" stroke-linejoin="round"/>
      </g>
      <!-- 常 -->
      <g transform="translate(55, 55) scale(0.32)">
        <path d="M52.96,8.12c0.9,0.9,1.51,2.47,1.51,3.99c0,7.77-0.01,13.07-0.01,15.76" stroke="#FFD700" stroke-width="8" fill="none" stroke-linecap="round" stroke-linejoin="round"/>
        <path d="M31.38,14.88c3.33,1.69,8.6,6.96,9.43,9.59" stroke="#FFD700" stroke-width="8" fill="none" stroke-linecap="round" stroke-linejoin="round"/>
        <path d="M73.26,11.25c0.08,0.9-0.39,1.99-0.92,2.75c-1.32,2.39-4.4,5.81-8.59,8.88" stroke="#FFD700" stroke-width="8" fill="none" stroke-linecap="round" stroke-linejoin="round"/>
        <path d="M21.95,30.38c-0.18,4.2-3.21,14.05-4.7,16.56" stroke="#FFD700" stroke-width="8" fill="none" stroke-linecap="round" stroke-linejoin="round"/>
        <path d="M22.99,32.68c11.01-1.8,46.21-5.71,62.8-6.62c10.21-0.56,0.65,7.69-0.9,8.95" stroke="#FFD700" stroke-width="8" fill="none" stroke-linecap="round" stroke-linejoin="round"/>
        <path d="M36.14,41.13c0.75,0.52,1.4,1.78,1.61,2.72c1,4.4,1.54,7.14,2.18,10.87c0.26,1.54,0.5,2.88,0.7,3.78" stroke="#FFD700" stroke-width="8" fill="none" stroke-linecap="round" stroke-linejoin="round"/>
        <path d="M38.1,42.57c4.63-0.47,22.22-2.74,28.8-3.53c3.07-0.37,4.12,0.42,3.09,3.5c-1.01,3.01-2.72,8.01-3.87,10.77" stroke="#FFD700" stroke-width="8" fill="none" stroke-linecap="round" stroke-linejoin="round"/>
        <path d="M40.94,55.96c5.19-0.57,15.05-1.47,22.3-2.01c1.91-0.14,3.63-0.26,5.05-0.34" stroke="#FFD700" stroke-width="8" fill="none" stroke-linecap="round" stroke-linejoin="round"/>
        <path d="M29.06,68.13c0.97,0.97,1.56,2.5,1.88,4.36c0.1,0.58,0.29,8.75,0.32,14.76c0.01,1.95,0,3.67-0.03,4.84" stroke="#FFD700" stroke-width="8" fill="none" stroke-linecap="round" stroke-linejoin="round"/>
        <path d="M31.27,70.28c5.48-0.53,36.73-4.03,44.27-4.58c3.36-0.25,3.88,2.93,3.97,4.58c0.25,4.47,0,12.97-0.94,16.73c-1.46,5.84-5.04,0.81-6.66-1.21" stroke="#FFD700" stroke-width="8" fill="none" stroke-linecap="round" stroke-linejoin="round"/>
        <path d="M53,57.02c0.93,0.93,1.31,2.73,1.31,4.57c0,5.73-0.11,19.29-0.11,33.16c0,3.05-0.04,5.33-0.07,6.24" stroke="#FFD700" stroke-width="8" fill="none" stroke-linecap="round" stroke-linejoin="round"/>
      </g>
    </g>
  </g>
</svg>
